<svg width="1280" height="320" viewBox="0 0 1280 320" fill="none" xmlns="http://www.w3.org/2000/svg">
  <rect width="1280" height="320" rx="40" fill="#121826"/>
  <path d="M16 126H96L143 226L112 263L16 126Z" fill="url(#vxstudio_logo_blue)"/>
  <path d="M156 126H236L133 264L92 226L156 126Z" fill="url(#vxstudio_logo_cyan)"/>
  <path d="M113 213L170 290H120C107 290 98 275 104 264L113 213Z" fill="url(#vxstudio_logo_purple)"/>
  <path d="M260 126H341L278 207L355 290H274L196 182L260 126Z" fill="url(#vxstudio_logo_pink)"/>
  <text x="452" y="224" fill="white" font-family="Segoe UI, Arial, sans-serif" font-size="134" font-weight="700" letter-spacing="-4">VXStudio</text>
  <defs>
    <linearGradient id="vxstudio_logo_blue" x1="16" y1="126" x2="143" y2="263" gradientUnits="userSpaceOnUse">
      <stop stop-color="#5B44FF"/>
      <stop offset="1" stop-color="#55D8E9"/>
    </linearGradient>
    <linearGradient id="vxstudio_logo_cyan" x1="236" y1="126" x2="91" y2="264" gradientUnits="userSpaceOnUse">
      <stop stop-color="#76D6F7"/>
      <stop offset="0.55" stop-color="#3A8BFF"/>
      <stop offset="1" stop-color="#383BFF"/>
    </linearGradient>
    <linearGradient id="vxstudio_logo_purple" x1="104" y1="290" x2="170" y2="213" gradientUnits="userSpaceOnUse">
      <stop stop-color="#9A47FF"/>
      <stop offset="1" stop-color="#6A2BE7"/>
    </linearGradient>
    <linearGradient id="vxstudio_logo_pink" x1="238" y1="126" x2="328" y2="290" gradientUnits="userSpaceOnUse">
      <stop stop-color="#FF7D8E"/>
      <stop offset="0.45" stop-color="#FF3B9B"/>
      <stop offset="1" stop-color="#E42294"/>
    </linearGradient>
  </defs>
</svg>
